<?xml version="1.0" encoding="UTF-8"?>
<!DOCTYPE svg PUBLIC "-//W3C//DTD SVG 1.0//EN" "http://www.w3.org/TR/2001/REC-SVG-20010904/DTD/svg10.dtd">
<!-- Creator: CorelDRAW X8 -->
<svg xmlns="http://www.w3.org/2000/svg" xml:space="preserve" width="260px" height="64px" version="1.0" style="shape-rendering:geometricPrecision; text-rendering:geometricPrecision; image-rendering:optimizeQuality; fill-rule:evenodd; clip-rule:evenodd"
viewBox="0 0 3796967 934850"
 xmlns:xlink="http://www.w3.org/1999/xlink">
 <defs>
  <style type="text/css">
   <![CDATA[
    .fil2 {fill:#666666}
    .fil1 {fill:#D18BAD}
    .fil0 {fill:#FFBE70}
    .fil6 {fill:white}
    .fil5 {fill:black;fill-rule:nonzero;fill-opacity:0.600000}
    .fil3 {fill:#280056;fill-opacity:0.611765}
    .fil4 {fill:#280056;fill-rule:nonzero;fill-opacity:0.611765}
   ]]>
  </style>
 </defs>
 <g id="Capa_x0020_1">
  <metadata id="CorelCorpID_0Corel-Layer"/>
  <g id="_1705532483104">
   <g>
    <path class="fil0" d="M2817752 755612c-6638,2007 -10434,4354 -14155,8667 -4312,5008 -4598,7322 -6655,14200 302,20988 4772,48040 7218,69674 1308,11589 2616,23178 3928,34766 1217,10799 2020,24291 4598,34407 5091,9027 10501,16593 23435,17503 7781,546 109253,-11854 121997,-13294l326937 -36927c54410,-6146 109862,-11402 164036,-18567 -5815,-3895 -8448,-1262 -10033,-15794l-16386 -145084c-1961,-17093 1453,-11228 4818,-18637l-609738 69086z"/>
    <path class="fil1" d="M2817752 755612l609738 -69086c-3365,7409 -6779,1544 -4818,18637l16386 145084c1585,14532 4218,11899 10033,15794l96046 -10782c10650,-1204 21849,-1216 22942,-11601 563,-5389 -13224,-120453 -14184,-128938 -956,-8476 -1833,-24568 -3799,-32047 -2736,-10389 -12479,-8518 -23244,-7301l-645175 72935c-20773,2347 -43520,4060 -63925,7305z"/>
    <path class="fil2" d="M2812686 917326c-2578,-10116 -3381,-23608 -4598,-34407 -1312,-11588 -2620,-23177 -3928,-34766 -2446,-21634 -6916,-48686 -7218,-69674l-56359 41434c-9536,6929 -18529,13911 -28140,20761 -3911,2790 -26373,18956 -27726,20947l63978 27970c18795,7963 46554,21129 63991,27735z"/>
   </g>
   <g>
    <path class="fil3" d="M147472 548247l0 -373943 -147472 0 0 -86904 401594 0 0 86904 -147472 0 0 373943 -106650 0zm1814404 7901c-36426,0 -70112,-5927 -101054,-17777 -30942,-11849 -57717,-28529 -80319,-50034 -22602,-21506 -40160,-46745 -52667,-75709 -12508,-28968 -18762,-60568 -18762,-94804 0,-34233 6254,-65833 18762,-94801 12507,-28968 30172,-54203 52998,-75712 22822,-21506 49596,-38182 80319,-50035 30723,-11850 64078,-17773 100065,-17773 36430,0 69897,5923 100401,17773 30503,11853 57054,28529 79661,50035 22602,21509 40267,46636 52994,75381 12731,28748 19092,60460 19092,95132 0,34236 -6361,65944 -19092,95131 -12727,29188 -30392,54426 -52994,75713 -22607,21286 -49158,37854 -79661,49703 -30504,11850 -63751,17777 -99743,17777zm-767631 -7901l0 -460847 209356 0c50031,0 94139,9549 132324,28641 38185,19093 68030,45756 89536,79988 21506,34237 32258,74835 32258,121795 0,46525 -10752,87011 -32258,121467 -21506,34452 -51351,61226 -89536,80319 -38185,19092 -82293,28637 -132324,28637l-209356 0zm106654 -87562l97438 0c30722,0 57381,-5815 79983,-17446 22602,-11630 40160,-28198 52667,-49703 12508,-21506 18762,-46745 18762,-75712 0,-29407 -6254,-54754 -18762,-76040 -12507,-21286 -30065,-37742 -52667,-49376 -22602,-11631 -49261,-17446 -79983,-17446l-97438 0 0 285723zm-624774 95463c-36426,0 -70112,-5927 -101054,-17777 -30943,-11849 -57717,-28529 -80319,-50034 -22603,-21506 -40160,-46745 -52667,-75709 -12508,-28968 -18762,-60568 -18762,-94804 0,-34233 6254,-65833 18762,-94801 12507,-28968 30172,-54203 52998,-75712 22822,-21506 49596,-38182 80319,-50035 30723,-11850 64078,-17773 100065,-17773 36430,0 69897,5923 100401,17773 30503,11853 57054,28529 79660,50035 22603,21509 40267,46636 52994,75381 12732,28748 19093,60460 19093,95132 0,34236 -6361,65944 -19093,95131 -12727,29188 -30391,54426 -52994,75713 -22606,21286 -49157,37854 -79660,49703 -30504,11850 -63751,17777 -99743,17777zm-658 -90853c20628,0 39613,-3513 56951,-10533 17333,-7024 32585,-17118 45755,-30284 13166,-13170 23368,-28749 30611,-46744 7243,-17996 10865,-37966 10865,-59910 0,-21945 -3622,-41915 -10865,-59911 -7243,-17991 -17338,-33574 -30284,-46740 -12946,-13170 -28198,-23264 -45755,-30284 -17557,-7024 -36650,-10533 -57278,-10533 -20628,0 -39609,3509 -56947,10533 -17333,7020 -32585,17114 -45755,30284 -13165,13166 -23372,28749 -30611,46740 -7243,17996 -10864,37966 -10864,59911 0,21505 3621,41367 10864,59583 7239,18211 17334,33901 30284,47071 12947,13166 28198,23260 45755,30284 17558,7020 36646,10533 57274,10533z"/>
    <path class="fil4" d="M2474673 621467l-54868 -457568 105897 -12698 44521 371285 229438 -27515 10348 86287 -335336 40209zm394815 -47340l-54869 -457568 105897 -12702 54865 457568 -105893 12702zm365686 -35896c-36605,4391 -72273,3696 -107003,-2086 -34729,-5782 -63279,-15289 -85641,-28521l26385 -84057c21282,11593 45863,20248 73734,25968 27867,5720 55536,6932 82984,3642 20918,-2508 37561,-6602 49919,-12284 12359,-5683 21146,-12591 26357,-20732 5210,-8141 7243,-17006 6092,-26592 -1461,-12201 -7417,-21324 -17867,-27362 -10447,-6043 -23791,-10409 -40027,-13104 -16241,-2694 -34084,-4975 -53537,-6841 -19452,-1867 -39021,-4715 -58709,-8543 -19689,-3828 -37950,-9594 -54787,-17300 -16841,-7703 -31099,-18816 -42787,-33327 -11684,-14515 -18993,-33971 -21920,-58374 -3133,-26149 1085,-50854 12661,-74123 11577,-23269 30868,-43044 57870,-59322 27002,-16279 62074,-27002 105214,-32176 28761,-3448 57493,-3468 86188,-58 28703,3410 54542,10587 77512,21539l-23045 84321c-22813,-9644 -45250,-16125 -67310,-19445 -22056,-3327 -43326,-3762 -63809,-1303 -20479,2454 -36973,6862 -49468,13228 -12499,6357 -21125,13691 -25876,21998 -4752,8306 -6527,17470 -5323,27490 1412,11771 7343,20669 17793,26712 10447,6039 23778,10298 39986,12777 16212,2475 34054,4755 53536,6841 19478,2086 39034,4822 58673,8216 19634,3390 37870,8940 54707,16647 16837,7706 31100,18811 42788,33326 11684,14511 18964,33752 21841,57720 3083,25711 -1288,50105 -13104,73184 -11825,23078 -31224,42866 -58197,59359 -26977,16494 -62252,27358 -105830,32582zm354001 -50408l-44522 -371281 -146425 17557 -10347 -86283 398738 -47816 10348 86287 -146425 17557 44522 371281 -105889 12698z"/>
   </g>
   <path class="fil5" d="M347131 921543l0 -147550 17284 0 97594 121202 -9064 0 0 -121202 21079 0 0 147550 -17284 0 -97598 -121202 9064 0 0 121202 -21075 0zm257868 1267c-11241,0 -21216,-2463 -29928,-7380 -8717,-4917 -15600,-11700 -20662,-20342 -5057,-8642 -7586,-18443 -7586,-29403 0,-11100 2529,-20938 7586,-29510 5062,-8572 11945,-15285 20662,-20131 8712,-4847 18687,-7272 29928,-7272 11104,0 21046,2425 29829,7272 8782,4846 15669,11522 20657,20023 4987,8502 7483,18377 7483,29618 0,11101 -2496,20939 -7483,29510 -4988,8572 -11875,15318 -20657,20235 -8783,4917 -18725,7380 -29829,7380zm0 -17706c7168,0 13596,-1619 19287,-4851 5695,-3232 10157,-7835 13385,-13807 3232,-5973 4851,-12893 4851,-20761 0,-8009 -1619,-14933 -4851,-20764 -3228,-5832 -7690,-10364 -13385,-13597 -5691,-3232 -12119,-4846 -19287,-4846 -7165,0 -13559,1614 -19180,4846 -5620,3233 -10119,7765 -13492,13597 -3370,5831 -5058,12755 -5058,20764 0,7868 1688,14788 5058,20761 3373,5972 7872,10575 13492,13807 5621,3232 12015,4851 19180,4851zm368777 -96332c8994,0 16936,1755 23819,5268 6887,3514 12263,8853 16129,16022 3862,7164 5795,16228 5795,27192l0 64289 -20235 0 0 -61971c0,-10819 -2529,-18972 -7591,-24452 -5058,-5480 -12152,-8220 -21286,-8220 -6747,0 -12649,1403 -17706,4213 -5062,2815 -8961,6958 -11701,12438 -2740,5479 -4110,12296 -4110,20446l0 57546 -20235 0 0 -61971c0,-10819 -2495,-18972 -7483,-24452 -4991,-5480 -12122,-8220 -21398,-8220 -6601,0 -12433,1403 -17495,4213 -5057,2815 -8993,6958 -11804,12438 -2810,5479 -4213,12296 -4213,20446l0 57546 -20235 0 0 -111716 19391 0 0 29721 -3162 -7590c3513,-7306 8923,-12996 16232,-17073 7305,-4077 15806,-6113 25504,-6113 10678,0 19883,2636 27614,7905 7728,5269 12785,13244 15178,23923l-8224 -3374c3373,-8571 9275,-15454 17706,-20657 8435,-5198 18269,-7797 29510,-7797zm194216 112771l0 -23608 -1051 -4428 0 -40259c0,-8572 -2496,-15210 -7483,-19920 -4992,-4706 -12475,-7061 -22449,-7061 -6606,0 -13071,1088 -19395,3265 -6324,2181 -11663,5095 -16018,8750l-8435 -15177c5762,-4636 12686,-8187 20765,-10646 8079,-2458 16547,-3687 25400,-3687 15318,0 27122,3725 35412,11170 8291,7450 12438,18832 12438,34150l0 67451 -19184 0zm-36674 1267c-8295,0 -15567,-1407 -21820,-4218 -6254,-2810 -11064,-6709 -14437,-11700 -3373,-4988 -5062,-10641 -5062,-16965 0,-6043 1441,-11523 4321,-16444 2885,-4917 7591,-8853 14126,-11804 6536,-2951 15351,-4425 26452,-4425l35412 0 0 14544 -34568 0c-10119,0 -16932,1685 -20446,5058 -3514,3373 -5269,7450 -5269,12226 0,5480 2177,9871 6536,13174 4354,3303 10396,4954 18124,4954 7590,0 14229,-1688 19920,-5057 5691,-3373 9801,-8295 12334,-14755l4002 13910c-2669,6606 -7375,11838 -14122,15703 -6746,3866 -15247,5799 -25503,5799zm-6325 -129216l28666 -27403 25715 0 -35412 27403 -18969 0zm173560 129216c-9276,0 -18095,-1267 -26456,-3796 -8361,-2528 -14929,-5620 -19709,-9275l8431 -16021c4780,3232 10682,5972 17706,8224 7027,2247 14196,3369 21501,3369 9416,0 16195,-1333 20343,-4003 4147,-2669 6216,-6394 6216,-11170 0,-3514 -1262,-6254 -3791,-8224 -2533,-1966 -5869,-3440 -10016,-4425 -4143,-985 -8746,-1862 -13803,-2636 -5062,-774 -10120,-1755 -15177,-2951 -5062,-1192 -9698,-2881 -13915,-5058 -4214,-2177 -7587,-5198 -10116,-9064 -2529,-3866 -3795,-9027 -3795,-15492 0,-6746 1896,-12648 5691,-17706 3795,-5062 9172,-8961 16125,-11700 6957,-2740 15214,-4110 24767,-4110 7309,0 14722,877 22238,2636 7520,1755 13667,4251 18447,7483l-8642 16018c-5062,-3374 -10331,-5691 -15810,-6954 -5480,-1266 -10960,-1899 -16444,-1899 -8853,0 -15455,1440 -19813,4321 -4354,2880 -6535,6568 -6535,11067 0,3795 1299,6709 3903,8749 2599,2037 5972,3618 10115,4739 4147,1126 8750,2074 13807,2848 5058,774 10120,1755 15178,2951 5057,1196 9660,2848 13807,4954 4143,2107 7516,5058 10115,8853 2599,3796 3899,8853 3899,15177 0,6743 -1966,12574 -5902,17495 -3932,4917 -9482,8746 -16651,11486 -7168,2744 -15740,4114 -25714,4114zm264432 0c-11241,0 -21216,-2463 -29928,-7380 -8717,-4917 -15600,-11700 -20662,-20342 -5057,-8642 -7586,-18443 -7586,-29403 0,-11100 2529,-20938 7586,-29510 5062,-8572 11945,-15285 20662,-20131 8712,-4847 18687,-7272 29928,-7272 11104,0 21046,2425 29829,7272 8782,4846 15669,11522 20657,20023 4987,8502 7483,18377 7483,29618 0,11101 -2496,20939 -7483,29510 -4988,8572 -11875,15318 -20657,20235 -8783,4917 -18725,7380 -29829,7380zm0 -17706c7168,0 13596,-1619 19287,-4851 5695,-3232 10157,-7835 13385,-13807 3232,-5973 4851,-12893 4851,-20761 0,-8009 -1619,-14933 -4851,-20764 -3228,-5832 -7690,-10364 -13385,-13597 -5691,-3232 -12119,-4846 -19287,-4846 -7165,0 -13559,1614 -19180,4846 -5620,3233 -10119,7765 -13492,13597 -3369,5831 -5058,12755 -5058,20764 0,7868 1689,14788 5058,20761 3373,5972 7872,10575 13492,13807 5621,3232 12015,4851 19180,4851zm127820 16439l0 -156403 20235 0 0 156403 -20235 0zm129924 0l-48905 -111716 21079 0 43421 101179 -10116 0 44266 -101179 19812 0 -48900 111716 -20657 0zm130345 0l0 -111716 20235 0 0 111716 -20235 0zm10115 -133217c-3936,0 -7201,-1267 -9801,-3796 -2599,-2529 -3898,-5620 -3898,-9275 0,-3791 1299,-6953 3898,-9486 2600,-2529 5865,-3791 9801,-3791 3936,0 7202,1229 9801,3687 2599,2459 3903,5517 3903,9168 0,3795 -1266,6995 -3795,9594 -2529,2599 -5832,3899 -9909,3899zm136670 134484c-10819,0 -20484,-2392 -28985,-7169 -8501,-4776 -15210,-11452 -20127,-20024 -4921,-8571 -7380,-18550 -7380,-29932 0,-11382 2459,-21327 7380,-29829 4917,-8501 11626,-15140 20127,-19916 8501,-4780 18166,-7168 28985,-7168 9416,0 17917,2106 25503,6324 7591,4213 13667,10537 18236,18968 4565,8435 6850,18973 6850,31621 0,12649 -2214,23186 -6639,31617 -4428,8431 -10434,14792 -18024,19076 -7587,4288 -16229,6432 -25926,6432zm1684 -17706c7028,0 13385,-1619 19076,-4851 5695,-3232 10190,-7835 13493,-13807 3303,-5973 4954,-12893 4954,-20761 0,-8009 -1651,-14933 -4954,-20764 -3303,-5832 -7798,-10364 -13493,-13597 -5691,-3232 -12048,-4846 -19076,-4846 -7164,0 -13559,1614 -19179,4846 -5621,3233 -10120,7765 -13493,13597 -3369,5831 -5058,12755 -5058,20764 0,7868 1689,14788 5058,20761 3373,5972 7872,10575 13493,13807 5620,3232 12015,4851 19179,4851zm38156 16439l0 -30143 1263 -25926 -2107 -25926 0 -74408 20235 0 0 156403 -19391 0zm147419 1267c-11242,0 -21216,-2463 -29929,-7380 -8716,-4917 -15599,-11700 -20661,-20342 -5057,-8642 -7586,-18443 -7586,-29403 0,-11100 2529,-20938 7586,-29510 5062,-8572 11945,-15285 20661,-20131 8713,-4847 18687,-7272 29929,-7272 11104,0 21046,2425 29828,7272 8783,4846 15670,11522 20657,20023 4988,8502 7484,18377 7484,29618 0,11101 -2496,20939 -7484,29510 -4987,8572 -11874,15318 -20657,20235 -8782,4917 -18724,7380 -29828,7380zm0 -17706c7168,0 13596,-1619 19287,-4851 5695,-3232 10156,-7835 13385,-13807 3232,-5973 4851,-12893 4851,-20761 0,-8009 -1619,-14933 -4851,-20764 -3229,-5832 -7690,-10364 -13385,-13597 -5691,-3232 -12119,-4846 -19287,-4846 -7165,0 -13559,1614 -19180,4846 -5621,3233 -10119,7765 -13493,13597 -3369,5831 -5057,12755 -5057,20764 0,7868 1688,14788 5057,20761 3374,5972 7872,10575 13493,13807 5621,3232 12015,4851 19180,4851zm159859 17706c-9275,0 -18095,-1267 -26456,-3796 -8360,-2528 -14928,-5620 -19709,-9275l8431 -16021c4780,3232 10682,5972 17706,8224 7028,2247 14196,3369 21502,3369 9415,0 16195,-1333 20342,-4003 4147,-2669 6217,-6394 6217,-11170 0,-3514 -1263,-6254 -3792,-8224 -2533,-1966 -5868,-3440 -10016,-4425 -4143,-985 -8745,-1862 -13803,-2636 -5062,-774 -10119,-1755 -15177,-2951 -5062,-1192 -9697,-2881 -13915,-5058 -4213,-2177 -7586,-5198 -10115,-9064 -2529,-3866 -3796,-9027 -3796,-15492 0,-6746 1896,-12648 5691,-17706 3796,-5062 9172,-8961 16125,-11700 6958,-2740 15215,-4110 24767,-4110 7310,0 14722,877 22239,2636 7520,1755 13666,4251 18446,7483l-8641 16018c-5062,-3374 -10331,-5691 -15811,-6954 -5480,-1266 -10960,-1899 -16444,-1899 -8853,0 -15454,1440 -19812,4321 -4355,2880 -6536,6568 -6536,11067 0,3795 1300,6709 3903,8749 2599,2037 5973,3618 10116,4739 4147,1126 8749,2074 13807,2848 5058,774 10119,1755 15177,2951 5058,1196 9660,2848 13807,4954 4143,2107 7517,5058 10116,8853 2599,3796 3899,8853 3899,15177 0,6743 -1966,12574 -5902,17495 -3932,4917 -9483,8746 -16651,11486 -7169,2744 -15740,4114 -25715,4114z"/>
   <path class="fil6" d="M1917880 342715c-5414,-4578 -39613,-39593 -47241,-47167 -3241,-3216 -5927,-6303 -9772,-9134 -8381,-6171 -20123,-6573 -29187,-712 -3787,2450 -6887,6055 -9875,9031 -3158,3145 -6519,6200 -9300,9614 -7918,9727 -7190,25554 2284,34605 1991,1904 3171,3009 4814,4872l35615 35395c1092,952 1394,1681 2409,2670l6903 6933c666,678 1701,1399 2645,2417l32949 32995c9810,9540 24734,8952 34945,368 1581,-1328 3348,-2984 4743,-4478l33438 -33426c1784,-1908 2843,-2731 4524,-4701 1001,-1180 1183,-1085 2396,-2215l73535 -73572c936,-820 1316,-1536 2198,-2417l50155 -49907c6229,-6382 11891,-14655 10455,-27614 -1855,-16692 -21767,-36799 -43169,-31869 -11245,2590 -16729,9759 -22399,15429 -6407,6403 -12454,12541 -18911,18902 -12884,12690 -25189,25318 -38057,38032 -12830,12682 -25425,25177 -38036,38057l-28372 28347c-2611,2608 -7069,7661 -9689,9545z"/>
  </g>
 </g>
</svg>
