<?xml version="1.0" encoding="UTF-8"?>
<!DOCTYPE svg PUBLIC "-//W3C//DTD SVG 1.0//EN" "http://www.w3.org/TR/2001/REC-SVG-20010904/DTD/svg10.dtd">
<!-- Creator: CorelDRAW X8 -->
<svg xmlns="http://www.w3.org/2000/svg" xml:space="preserve" width="300px" height="68px" version="1.0" style="shape-rendering:geometricPrecision; text-rendering:geometricPrecision; image-rendering:optimizeQuality; fill-rule:evenodd; clip-rule:evenodd"
viewBox="0 0 163241936 37185884"
 xmlns:xlink="http://www.w3.org/1999/xlink">
 <defs>
  <style type="text/css">
   <![CDATA[
    .fil2 {fill:white}
    .fil3 {fill:#1B1B32;fill-rule:nonzero}
    .fil4 {fill:#6A6A79;fill-rule:nonzero}
    .fil1 {fill:#0D6EFD;fill-opacity:0.341176}
    .fil0 {fill:white;fill-opacity:0.388235}
   ]]>
  </style>
 </defs>
 <g id="Capa_x0020_1">
  <metadata id="CorelCorpID_0Corel-Layer"/>
  <g id="_1685740484544">
   <polygon class="fil0" points="143607698,24656706 22453958,24771000 16372611,37185884 137526350,37071589 "/>
   <path class="fil1" d="M15082212 36093c-3451038,269154 -6211530,1303664 -8763330,3245278 -419078,318820 -709981,582113 -1090499,904945 -175220,148382 -347510,335170 -507769,489413 -755175,727720 -1661200,1846909 -2233596,2781931 -506072,826744 -976360,1665056 -1359191,2660233 -2553806,6640634 -587359,13377053 4053512,17718846 1369834,1281607 3172783,2382903 4917891,3089954 2010406,814713 4442513,1252455 6894981,1102994 8572222,-522576 15492344,-7759669 15033316,-16936678 -164577,-3290625 -1402379,-6329988 -3237411,-8753458 -1102993,-1456827 -2606556,-2863217 -4168886,-3838189 -1029574,-642423 -1527933,-879186 -2656840,-1360733 -1841201,-785407 -4605548,-1282224 -6882178,-1104536z"/>
   <path class="fil2" d="M13231756 17959311c-344117,-291212 -2519564,-2518175 -3004504,-2999877 -206069,-204681 -376971,-401032 -621601,-581034 -533218,-392395 -1280064,-417999 -1856471,-45348 -240774,155786 -438051,385300 -628078,574556 -200979,199900 -414606,394092 -591523,611266 -503604,618670 -457331,1625570 145297,2201205 126634,120927 201596,191416 306018,309721l2265525 2251488c69409,60309 88536,106891 153009,169668l439131 441135c42571,43034 108278,88845 168279,153627l2095857 2098633c623760,606947 1572973,569466 2222491,23445 100566,-84371 212856,-189873 301854,-285041l2126706 -2125781c113368,-121543 180773,-173832 287663,-299077 63857,-75117 75271,-69101 152392,-140979l4677272 -4679585c59538,-51980 83754,-97636 139745,-153626l3190058 -3174326c396251,-405968 756409,-932246 664943,-1756213 -117842,-1061811 -1384488,-2340796 -2745684,-2027065 -715072,164732 -1064124,620675 -1424745,981296 -407356,407202 -791885,797746 -1202789,1202171 -819340,807155 -1602124,1610300 -2420539,2419151 -815946,806538 -1617240,1601353 -2419459,2420385l-1804337 1803258c-166274,165657 -449773,487254 -616510,606947z"/>
   <path class="fil3" d="M47315808 19188321l0 -15604017 -6035538 0 0 -1570350 13886518 0 0 1570350 -6035383 0 0 15604017 -1815597 0zm14279067 122623c-1243046,0 -2359304,-282111 -3348929,-846333 -989625,-564376 -1770558,-1341299 -2343109,-2330923 -572397,-989471 -858672,-2122233 -858672,-3397979 0,-1292249 286275,-2429022 858672,-3410317 572551,-981450 1349474,-1750198 2330770,-2306245 981449,-556201 2101872,-834148 3361268,-834148 1275900,0 2408508,277947 3398133,834148 989470,556047 1766547,1324795 2330769,2306245 564376,981295 846487,2118068 846487,3410317 0,1275746 -282111,2408508 -846487,3397979 -564222,989624 -1345309,1766547 -2343109,2330923 -997645,564222 -2126243,846333 -3385793,846333zm0 -1545671c932400,0 1758373,-208537 2478072,-625611 719699,-417074 1288085,-1005974 1705159,-1766548 417073,-760573 625610,-1639605 625610,-2637405 0,-1014149 -208537,-1897346 -625610,-2649744 -417074,-752399 -985460,-1337135 -1705159,-1754208 -719699,-417074 -1537497,-625611 -2453547,-625611 -915897,0 -1733694,208537 -2453393,625611 -719699,417073 -1292250,1001809 -1717499,1754208 -425248,752398 -637795,1635595 -637795,2649744 0,997800 212547,1876832 637795,2637405 425249,760574 997800,1349474 1717499,1766548 719699,417074 1529321,625611 2428868,625611zm9421331 -4465342l0 -1521147 6428086 0 0 1521147 -6428086 0zm10697076 5888390l0 -17174367 6992463 0c1831947,0 3439007,364014 4821026,1091888 1382174,727874 2457558,1737858 3226306,3029954 768748,1292250 1153123,2780697 1153123,4465341 0,1684799 -384375,3173246 -1153123,4465342 -768748,1292250 -1844132,2302234 -3226306,3030108 -1382019,727874 -2989079,1091734 -4821026,1091734l-6992463 0zm1815597 -1570196l5078767 0c1521147,0 2841932,-298461 3962355,-895537 1120423,-597075 1991280,-1423048 2612880,-2478071 621600,-1054870 932400,-2269381 932400,-3643380 0,-1390194 -310800,-2608870 -932400,-3655564 -621600,-1046849 -1492457,-1868811 -2612880,-2465733 -1120423,-597075 -2441208,-895536 -3962355,-895536l-5078767 0 0 14033821zm23332528 1692819c-1243046,0 -2359304,-282111 -3348929,-846333 -989624,-564376 -1770558,-1341299 -2343109,-2330923 -572396,-989471 -858672,-2122233 -858672,-3397979 0,-1292249 286276,-2429022 858672,-3410317 572551,-981450 1349474,-1750198 2330770,-2306245 981449,-556201 2101872,-834148 3361268,-834148 1275900,0 2408508,277947 3398133,834148 989470,556047 1766548,1324795 2330769,2306245 564376,981295 846487,2118068 846487,3410317 0,1275746 -282111,2408508 -846487,3397979 -564221,989624 -1345309,1766547 -2343109,2330923 -997645,564222 -2126242,846333 -3385793,846333zm0 -1545671c932401,0 1758373,-208537 2478072,-625611 719699,-417074 1288085,-1005974 1705159,-1766548 417074,-760573 625611,-1639605 625611,-2637405 0,-1014149 -208537,-1897346 -625611,-2649744 -417074,-752399 -985460,-1337135 -1705159,-1754208 -719699,-417074 -1537496,-625611 -2453547,-625611 -915896,0 -1733694,208537 -2453393,625611 -719699,417073 -1292250,1001809 -1717498,1754208 -425249,752398 -637796,1635595 -637796,2649744 0,997800 212547,1876832 637796,2637405 425248,760574 997799,1349474 1717498,1766548 719699,417074 1529322,625611 2428868,625611zm16928966 1423048l0 -17174367 1815597 0 0 15604171 9617683 0 0 1570196 -11433280 0zm14082870 0l0 -12880698 1742023 0 0 12880698 -1742023 0zm883351 -15726794c-359850,0 -662475,-122624 -907876,-368025 -245246,-245246 -368024,-539697 -368024,-883196 0,-343500 122778,-633786 368024,-871012 245401,-237072 548026,-355685 907876,-355685 359849,0 662475,114449 907721,343500 245401,228897 368025,515172 368025,858672 0,359849 -118613,662475 -355685,907721 -237226,245401 -543862,368025 -920061,368025zm9175775 15849417c-1063198,0 -2069172,-151313 -3017614,-453784 -948750,-302625 -1692974,-682989 -2232671,-1140937l785098 -1373998c523347,392549 1193997,732038 2011795,1018313 817643,286122 1676469,429259 2576016,429259 1226696,0 2110047,-192187 2649744,-576561 539697,-384374 809623,-895536 809623,-1533332 0,-474452 -151313,-846487 -453938,-1116412 -302471,-269772 -699184,-474298 -1189832,-613271 -490802,-139128 -1038674,-257741 -1643924,-355840 -605097,-98098 -1206182,-212547 -1803258,-343499 -596921,-130799 -1140629,-322986 -1631431,-576561 -490647,-253422 -887361,-601086 -1189832,-1042685 -302625,-441598 -453938,-1030499 -453938,-1766547 0,-703350 196198,-1332970 588747,-1889172 392703,-556046 969264,-993634 1729837,-1312609 760420,-318975 1688655,-478309 2784399,-478309 834302,0 1668449,110284 2502597,331161 834147,220876 1521146,511162 2060998,871011l-760574 1398369c-572551,-392549 -1185976,-674660 -1840121,-846332 -654300,-171827 -1308600,-257587 -1962900,-257587 -1161297,0 -2015805,200362 -2563677,601086 -547871,400724 -821962,911886 -821962,1533332 0,490648 151313,875022 453938,1153123 302625,278100 703195,494812 1202018,650135 498977,155477 1046848,282265 1643924,380364 596921,98098 1193997,216711 1790918,355685 597076,139127 1144948,327149 1643925,564376 498822,237226 899546,572396 1202171,1005974 302625,433423 453938,1001810 453938,1705159 0,752398 -208537,1402534 -625610,1950405 -417228,548027 -1022325,973275 -1815598,1275900 -793272,302471 -1754208,453784 -2882806,453784zm12586248 0c-1210346,0 -2142593,-327150 -2796892,-981295 -654300,-654300 -981450,-1578371 -981450,-2772522l0 -12095600 1742023 0 0 11997501c0,752398 192187,1333124 576561,1742023 384374,408899 936411,613271 1656110,613271 768748,0 1406544,-220722 1913696,-662320l613271 1251221c-343346,310800 -756409,539697 -1238882,686999 -482627,147148 -977285,220722 -1484437,220722zm-6084587 -11555749l0 -1447572 7973758 0 0 1447572 -7973758 0z"/>
   <path class="fil4" d="M51925521 33099980l1099754 -5498771 644274 0 2639410 4540458 -235683 -31465 895536 -4508993 785561 0 -1099754 5498771 -644274 0 -2639411 -4540458 235684 31466 -895536 4508992 -785561 0zm9783031 47199c-398102,0 -742372,-74654 -1033121,-223961 -290594,-149308 -517023,-358770 -679441,-628387 -162264,-269772 -243550,-585199 -243550,-946591 0,-471367 104731,-891680 314193,-1260784 209617,-369258 498823,-659853 868081,-871937 369258,-212085 789417,-318204 1260784,-318204 392858,0 735895,73266 1029111,219951 293216,146685 519800,353525 679441,620521 159796,267149 239694,583964 239694,950601 0,471367 -104731,891525 -314347,1260784 -209463,369258 -496201,661086 -860061,875793 -364014,214861 -784326,322214 -1260784,322214zm47044 -659853c314194,0 594454,-76042 840626,-227817 246018,-151929 438514,-360158 577332,-624531 138819,-264527 208229,-566998 208229,-907413 0,-366482 -107508,-653220 -322214,-860060 -214707,-206840 -521034,-310337 -918981,-310337 -308950,0 -586587,74653 -832760,223807 -246172,149307 -439901,356147 -581342,620674 -141287,264373 -212085,569466 -212085,915125 0,361392 107353,646742 322214,856205 214707,209462 521034,314347 918981,314347zm14246060 -3590011c371726,0 678207,73266 918981,219951 240928,146685 409824,360004 506689,640264 96864,280105 103497,616664 19743,1009367l-463501 2333083 -754095 0 463346 -2333083c78665,-377124 45965,-670341 -98098,-879803 -144063,-209462 -404580,-314194 -781705,-314194 -382215,0 -699030,107354 -950447,322060 -251416,214707 -421546,542011 -510545,981913l-447768 2223107 -754249 0 471367 -2333083c73420,-377124 37944,-670341 -105965,-879803 -144063,-209462 -404580,-314194 -781705,-314194 -382215,0 -699030,108588 -950447,325916 -251416,217329 -421546,551266 -510699,1001656l-439902 2199508 -754095 0 824893 -4163333 722630 0 -235684 1193997 -141287 -322060c193730,-314193 438514,-544633 734506,-691318 295839,-146685 624377,-219951 985769,-219951 282882,0 528900,47199 738362,141441 209617,94243 375891,234296 498823,420159 123086,186017 195118,409824 216095,671729l-408436 -78510c214706,-387613 490956,-676973 828748,-868081 337793,-191107 724018,-286738 1158676,-286738zm5768851 4249864c-350904,0 -665097,-72032 -942735,-216095 -277484,-144063 -496200,-349515 -655842,-616664 -159796,-266995 -239694,-589209 -239694,-966180 0,-356148 58921,-683452 176763,-981912 117841,-298615 282882,-557744 494966,-777695 212085,-219951 462113,-390235 750085,-510699 288126,-120464 599698,-180619 934868,-180619 361392,0 667719,62777 919136,188485 251262,125709 445146,310338 581188,553888 136197,243550 204372,540622 204372,891526 0,513321 -89152,967567 -267149,1362893 -177997,395480 -433423,703195 -765972,923146 -332548,219950 -729108,329926 -1189986,329926zm164886 -659853c314193,0 594453,-76042 840625,-227817 246018,-151929 438514,-360158 577333,-624531 138819,-264527 208228,-566998 208228,-907413 0,-366482 -107507,-653220 -322214,-860060 -214707,-206840 -521034,-310337 -918981,-310337 -308949,0 -586587,74653 -832759,223807 -246173,149307 -439902,356147 -581343,620674 -141287,264373 -212085,569466 -212085,915125 0,361392 107354,646742 322214,856205 214707,209462 521034,314347 918982,314347zm1201863 612654l219951 -1076155 251416 -966333 102109 -989779 219951 -1131066 754095 0 -824738 4163333 -722784 0zm-942580 -4768275l1186130 -1021244 981912 0 -1429680 1021244 -738362 0zm5973069 4815474c-350749,0 -682064,-45965 -993635,-137585 -311572,-91621 -551266,-205452 -718774,-341649l337793 -597075c162264,125708 373114,227817 632397,306481 259129,78510 530134,117688 813016,117688 361238,0 633631,-54911 816872,-164887 183396,-109975 275016,-259282 275016,-447768 0,-136196 -55065,-239539 -165040,-310337 -109976,-70643 -252651,-125708 -428025,-164886 -175529,-39332 -362626,-78510 -561754,-117842 -198974,-39332 -384837,-95631 -557743,-168896 -172753,-73266 -315428,-179385 -428025,-318204 -112598,-138665 -168897,-323294 -168897,-553733 0,-277638 78510,-517178 235684,-718774 157019,-201596 376970,-357535 659852,-467511 282728,-109975 612655,-164886 989779,-164886 272240,0 540623,32700 805150,98253 264527,65399 480468,158408 648130,278872l-298615 596921c-172752,-120464 -366482,-205452 -581188,-255272 -214861,-49821 -429568,-74654 -644274,-74654 -350750,0 -615277,58921 -793273,176763 -178151,117841 -267150,265761 -267150,443912 0,136042 54911,242162 164886,318049 109976,75888 252805,134809 428180,176763 175374,41954 361392,82520 557743,121698 196352,39332 382369,94397 557744,165040 175374,70643 318203,172753 428179,306327 109975,133575 164886,315582 164886,546021 0,287972 -79898,532756 -239540,734506 -159796,201596 -383603,354760 -671729,459491 -287972,104731 -620521,157174 -997645,157174zm9901952 0c-398101,0 -742372,-74654 -1033121,-223961 -290594,-149308 -517023,-358770 -679441,-628387 -162264,-269772 -243550,-585199 -243550,-946591 0,-471367 104731,-891680 314193,-1260784 209617,-369258 498823,-659853 868081,-871937 369258,-212085 789417,-318204 1260784,-318204 392858,0 735895,73266 1029111,219951 293216,146685 519800,353525 679442,620521 159796,267149 239694,583964 239694,950601 0,471367 -104732,891525 -314348,1260784 -209463,369258 -496201,661086 -860060,875793 -364014,214861 -784327,322214 -1260785,322214zm47045 -659853c314193,0 594453,-76042 840625,-227817 246018,-151929 438514,-360158 577333,-624531 138818,-264527 208228,-566998 208228,-907413 0,-366482 -107508,-653220 -322214,-860060 -214707,-206840 -521034,-310337 -918981,-310337 -308950,0 -586587,74653 -832760,223807 -246172,149307 -439901,356147 -581342,620674 -141287,264373 -212085,569466 -212085,915125 0,361392 107354,646742 322214,856205 214707,209462 521034,314347 918982,314347zm4551255 612654l1162685 -5828697 754095 0 -1162685 5828697 -754095 0zm4841849 0l-997645 -4163333 754249 0 879803 3770630 -377124 0 2395860 -3770630 761961 0 -2647276 4163333 -769828 0zm4857582 0l824893 -4163333 754095 0 -824893 4163333 -754095 0zm1421814 -4964626c-141287,0 -255272,-44577 -341649,-133575 -86376,-88998 -129564,-196352 -129564,-322060 0,-146685 49666,-271005 149153,-373114 99487,-102109 230440,-153164 392858,-153164 136196,0 250028,43188 341648,129564 91621,86377 137431,189874 137431,310338 0,162264 -49666,293216 -149153,392703 -99487,99487 -233062,149308 -400724,149308zm4158552 5011825c-350904,0 -665097,-72032 -942735,-216095 -277483,-144063 -496200,-349515 -655842,-616664 -159796,-266995 -239694,-589209 -239694,-966180 0,-356148 58921,-683452 176763,-981912 117842,-298615 282882,-557744 494966,-777695 212085,-219951 462113,-390235 750085,-510699 288126,-120464 599698,-180619 934868,-180619 361392,0 667719,62777 919136,188485 251262,125709 445146,310338 581188,553888 136197,243550 204373,540622 204373,891526 0,387613 -49821,741138 -149308,1060576 -99487,319438 -247406,595688 -443912,828749 -196352,233062 -430647,412292 -703041,538000 -272239,125709 -581188,188640 -926847,188640zm164886 -659853c314193,0 594453,-76042 840625,-227817 246018,-151929 438514,-360158 577333,-624531 138819,-264527 208228,-566998 208228,-907413 0,-366482 -107507,-653220 -322214,-860060 -214706,-206840 -521034,-310337 -918981,-310337 -308949,0 -586587,74653 -832759,223807 -246172,149307 -439902,356147 -581343,620674 -141287,264373 -212084,569466 -212084,915125 0,361392 107353,646742 322214,856205 214706,209462 521033,314347 918981,314347zm1201863 612654l219951 -1076155 243550 -966333 109975 -989779 557744 -2796430 754095 0 -1162531 5828697 -722784 0zm5666896 47199c-398101,0 -742372,-74654 -1033121,-223961 -290594,-149308 -517023,-358770 -679441,-628387 -162264,-269772 -243550,-585199 -243550,-946591 0,-471367 104731,-891680 314193,-1260784 209617,-369258 498823,-659853 868081,-871937 369258,-212085 789417,-318204 1260784,-318204 392858,0 735895,73266 1029111,219951 293217,146685 519800,353525 679442,620521 159796,267149 239694,583964 239694,950601 0,471367 -104732,891525 -314348,1260784 -209462,369258 -496201,661086 -860060,875793 -364014,214861 -784327,322214 -1260785,322214zm47045 -659853c314193,0 594453,-76042 840625,-227817 246018,-151929 438514,-360158 577333,-624531 138819,-264527 208228,-566998 208228,-907413 0,-366482 -107508,-653220 -322214,-860060 -214707,-206840 -521034,-310337 -918981,-310337 -308950,0 -586587,74653 -832760,223807 -246172,149307 -439901,356147 -581342,620674 -141287,264373 -212085,569466 -212085,915125 0,361392 107354,646742 322214,856205 214707,209462 521034,314347 918982,314347zm5863093 659853c-350749,0 -682063,-45965 -993635,-137585 -311571,-91621 -551265,-205452 -718773,-341649l337793 -597075c162263,125708 373114,227817 632397,306481 259128,78510 530134,117688 813016,117688 361238,0 633631,-54911 816872,-164887 183395,-109975 275016,-259282 275016,-447768 0,-136196 -55065,-239539 -165040,-310337 -109976,-70643 -252651,-125708 -428025,-164886 -175529,-39332 -362626,-78510 -561754,-117842 -198974,-39332 -384837,-95631 -557744,-168896 -172752,-73266 -315427,-179385 -428025,-318204 -112597,-138665 -168896,-323294 -168896,-553733 0,-277638 78510,-517178 235684,-718774 157019,-201596 376970,-357535 659852,-467511 282728,-109975 612654,-164886 989779,-164886 272239,0 540622,32700 805150,98253 264527,65399 480467,158408 648130,278872l-298615 596921c-172753,-120464 -366482,-205452 -581189,-255272 -214861,-49821 -429567,-74654 -644274,-74654 -350749,0 -615276,58921 -793273,176763 -178151,117841 -267149,265761 -267149,443912 0,136042 54911,242162 164886,318049 109975,75888 252805,134809 428179,176763 175375,41954 361392,82520 557744,121698 196351,39332 382369,94397 557743,165040 175375,70643 318204,172753 428180,306327 109975,133575 164886,315582 164886,546021 0,287972 -79898,532756 -239540,734506 -159796,201596 -383603,354760 -671729,459491 -287973,104731 -620521,157174 -997646,157174z"/>
  </g>
 </g>
</svg>
